<svg id="visual" viewBox="0 0 960 540" width="960" height="540" xmlns="http://www.w3.org/2000/svg" xmlns:xlink="http://www.w3.org/1999/xlink" version="1.1"><g transform="translate(936.7959931035142 10.732423279157587)"><path d="M223.6 -387.6C289.7 -349.1 343.2 -289.1 350.6 -220.9C358.1 -152.7 319.5 -76.3 300.8 -10.8C282 54.7 283 109.3 274.3 175.3C265.5 241.3 247 318.5 199.7 362.8C152.3 407.2 76.2 418.6 16 390.9C-44.2 363.2 -88.3 296.3 -143.2 256.3C-198 216.3 -263.6 203.2 -289.6 164.9C-315.7 126.7 -302.4 63.3 -296.3 3.5C-290.2 -56.3 -291.5 -112.7 -263 -146.8C-234.5 -180.9 -176.3 -192.7 -127.5 -241.2C-78.8 -289.7 -39.4 -374.9 19.7 -409C78.7 -443.1 157.5 -426.1 223.6 -387.6" fill="#FAF9FF"></path></g></svg>